<?xml version="1.0" encoding="UTF-8"?><svg xmlns="http://www.w3.org/2000/svg" xmlns:xlink="http://www.w3.org/1999/xlink" contentScriptType="text/ecmascript" width="100" zoomAndPan="magnify" contentStyleType="text/css" viewBox="0 0 375 120" height="70" preserveAspectRatio="xMidYMid meet" version="1.0"><defs><clipPath id="clip-0"><path d="M 17.734375 14.355469 L 155.734375 14.355469 L 155.734375 111.855469 L 17.734375 111.855469 Z M 17.734375 14.355469 " clip-rule="nonzero"/></clipPath></defs><g clip-path="url(#clip-0)"><path fill="rgb(0%, 76.078796%, 81.959534%)" d="M 144.359375 64.511719 L 152.820312 64.511719 C 152.089844 88.726562 132.535156 108.285156 108.332031 109.019531 L 108.332031 100.601562 C 108.332031 99.824219 107.703125 99.195312 106.925781 99.195312 C 106.148438 99.195312 105.519531 99.824219 105.519531 100.601562 L 105.519531 109.019531 C 86.570312 108.445312 70.472656 96.332031 64.023438 79.480469 L 75.542969 79.480469 C 76.320312 79.480469 76.949219 78.851562 76.949219 78.074219 C 76.949219 77.296875 76.320312 76.667969 75.542969 76.667969 L 63.046875 76.667969 C 61.851562 72.804688 61.15625 68.730469 61.027344 64.511719 L 68.519531 64.511719 C 69.296875 64.511719 69.925781 63.882812 69.925781 63.105469 C 69.925781 62.328125 69.296875 61.699219 68.519531 61.699219 L 61.027344 61.699219 C 61.222656 55.316406 62.722656 49.257812 65.273438 43.78125 L 75.542969 43.78125 C 76.320312 43.78125 76.949219 43.152344 76.949219 42.375 C 76.949219 41.597656 76.320312 40.96875 75.542969 40.96875 L 66.699219 40.96875 C 74.316406 27.175781 88.808594 17.695312 105.519531 17.191406 L 105.519531 25.421875 C 105.519531 26.199219 106.148438 26.828125 106.925781 26.828125 C 107.703125 26.828125 108.332031 26.199219 108.332031 25.421875 L 108.332031 17.191406 C 132.535156 17.921875 152.089844 37.484375 152.820312 61.699219 L 144.359375 61.699219 C 143.585938 61.699219 142.953125 62.328125 142.953125 63.105469 C 142.953125 63.882812 143.585938 64.511719 144.359375 64.511719 Z M 106.925781 14.355469 C 88.015625 14.355469 71.589844 25.183594 63.511719 40.96875 L 39.367188 40.96875 C 38.589844 40.96875 37.960938 41.597656 37.960938 42.375 C 37.960938 43.152344 38.589844 43.78125 39.367188 43.78125 L 62.1875 43.78125 C 59.621094 49.710938 58.191406 56.242188 58.191406 63.105469 C 58.191406 67.808594 58.863281 72.359375 60.113281 76.667969 L 19.222656 76.667969 C 18.445312 76.667969 17.816406 77.296875 17.816406 78.074219 C 17.816406 78.851562 18.445312 79.480469 19.222656 79.480469 L 61.023438 79.480469 C 67.765625 98.332031 85.792969 111.855469 106.925781 111.855469 C 133.796875 111.855469 155.660156 89.984375 155.660156 63.105469 C 155.660156 36.222656 133.796875 14.355469 106.925781 14.355469 " fill-opacity="1" fill-rule="nonzero"/></g><path fill="rgb(0%, 76.078796%, 81.959534%)" d="M 108.332031 64.058594 L 108.332031 33.101562 C 108.332031 32.324219 107.703125 31.691406 106.925781 31.691406 C 106.148438 31.691406 105.519531 32.324219 105.519531 33.101562 L 105.519531 64.648438 C 105.519531 65.023438 105.671875 65.386719 105.9375 65.652344 L 119.5625 79.078125 C 119.835938 79.347656 120.191406 79.480469 120.550781 79.480469 C 120.910156 79.480469 121.277344 79.339844 121.550781 79.0625 C 122.097656 78.507812 122.089844 77.617188 121.535156 77.070312 L 108.332031 64.058594 " fill-opacity="1" fill-rule="nonzero"/><path fill="rgb(0%, 76.078796%, 81.959534%)" d="M 20.867188 58.996094 L 45.121094 58.996094 C 45.898438 58.996094 46.527344 58.367188 46.527344 57.589844 C 46.527344 56.8125 45.898438 56.183594 45.121094 56.183594 L 20.867188 56.183594 C 20.089844 56.183594 19.460938 56.8125 19.460938 57.589844 C 19.460938 58.367188 20.089844 58.996094 20.867188 58.996094 " fill-opacity="1" fill-rule="nonzero"/><path fill="rgb(0%, 76.078796%, 81.959534%)" d="M 54.988281 90.664062 C 55.765625 90.664062 56.394531 90.03125 56.394531 89.257812 C 56.394531 88.480469 55.765625 87.847656 54.988281 87.847656 L 32.992188 87.847656 C 32.214844 87.847656 31.585938 88.480469 31.585938 89.257812 C 31.585938 90.03125 32.214844 90.664062 32.992188 90.664062 L 54.988281 90.664062 " fill-opacity="1" fill-rule="nonzero"/></svg>